<?xml version="1.0" standalone="no"?>
<!DOCTYPE svg PUBLIC "-//W3C//DTD SVG 20010904//EN"
 "http://www.w3.org/TR/2001/REC-SVG-20010904/DTD/svg10.dtd">
<svg version="1.0" xmlns="http://www.w3.org/2000/svg"
 width="1000.000000pt" height="1000.000000pt" viewBox="0 0 1000.000000 1000.000000"
 preserveAspectRatio="xMidYMid meet">
<metadata>
Created by potrace 1.14, written by Peter Selinger 2001-2017
</metadata>
<g transform="translate(0.000000,1000.000000) scale(0.100000,-0.100000)"
fill="#000000" stroke="none">
<path d="M4210 9150 l0 -70 -70 0 -70 0 0 -65 0 -65 -65 0 -65 0 0 -70 0 -70
-70 0 -70 0 0 -70 0 -70 -70 0 -70 0 0 -65 0 -65 70 0 70 0 0 -70 0 -70 70 0
70 0 0 -65 0 -65 65 0 65 0 0 -70 0 -70 -340 0 -340 0 0 -70 0 -70 -65 0 -65
0 0 -65 0 -65 -70 0 -70 0 0 -205 0 -205 70 0 70 0 0 -135 0 -135 65 0 65 0 0
-70 0 -70 205 0 205 0 0 -70 0 -70 -70 0 -70 0 0 -65 0 -65 -65 0 -65 0 0 -70
0 -70 65 0 65 0 0 -65 0 -65 70 0 70 0 0 -70 0 -70 70 0 70 0 0 -70 0 -70 65
0 65 0 0 -65 0 -65 70 0 70 0 0 -70 0 -69 135 1 135 2 0 68 0 68 70 0 70 0 0
-615 0 -615 -410 0 -410 0 0 -65 0 -65 -70 0 -70 0 0 135 0 135 -340 0 -340 0
0 -70 0 -70 -65 0 -65 0 0 -65 0 -65 -70 0 -70 0 0 -135 0 -135 -70 0 -70 0 0
-545 0 -545 -65 0 -65 0 0 -70 0 -70 -70 0 -70 0 0 -65 0 -65 -65 0 -65 0 0
-70 0 -70 65 0 65 0 0 -70 0 -70 70 0 70 0 0 -65 0 -65 65 0 65 0 0 -480 0
-480 70 0 70 0 0 -135 0 -135 70 0 70 0 0 -65 0 -65 65 0 65 0 0 -70 0 -70
275 0 275 0 0 135 0 135 65 0 65 0 0 -65 0 -65 70 0 70 0 0 -70 0 -70 1225 0
1225 0 0 70 0 70 65 0 65 0 0 -70 0 -70 275 0 275 0 0 70 0 70 65 0 65 0 0 65
0 65 70 0 70 0 0 135 0 135 70 0 70 0 0 480 0 480 65 0 65 0 0 65 0 65 70 0
70 0 0 70 0 70 68 0 67 0 0 70 0 70 -67 0 -68 0 0 65 0 65 -70 0 -70 0 0 135
0 135 -65 0 -65 0 0 480 0 480 -70 0 -70 0 0 135 0 135 -70 0 -70 0 0 65 0 65
-65 0 -65 0 0 70 0 70 -340 0 -340 0 0 -70 0 -70 -475 0 -475 0 0 615 0 615
65 0 65 0 0 -69 0 -70 135 1 135 0 0 69 0 69 70 0 70 0 0 65 0 65 70 0 70 0 0
70 0 70 65 0 65 0 0 70 0 70 70 0 70 0 0 135 0 135 -70 0 -70 0 0 65 0 65 -65
0 -65 0 0 70 0 70 200 0 200 0 0 70 0 70 70 0 70 0 0 65 0 65 69 0 68 0 1 275
0 275 -69 0 -69 0 0 65 0 65 -70 0 -70 0 0 70 0 70 -270 0 -270 0 0 70 0 70
70 0 70 0 0 65 0 65 65 0 65 0 0 135 0 135 -65 0 -65 0 0 70 0 70 -70 0 -70 0
0 70 0 70 -70 0 -70 0 0 65 0 65 -65 0 -65 0 0 70 0 70 -135 -2 -135 -1 0 -69
0 -68 -70 0 -70 0 0 -65 0 -65 -70 0 -70 0 0 -70 0 -70 -65 0 -65 0 0 70 0 70
-70 0 -70 0 0 65 0 65 -135 0 -135 0 0 69 0 68 -135 2 -135 1 0 -70z m-550
-4490 l0 -70 -65 0 -65 0 0 -65 0 -65 -70 0 -70 0 0 -70 0 -70 -65 0 -65 0 0
-1225 0 -1225 -70 0 -70 0 0 410 0 410 -70 0 -70 0 0 270 0 270 70 0 70 0 0
615 0 615 70 0 70 0 0 65 0 65 135 0 135 0 0 70 0 70 65 0 65 0 0 -70z m3000
0 l0 -70 65 0 65 0 0 -610 0 -610 70 0 70 0 0 -135 0 -135 65 0 65 0 0 -70 0
-70 -65 0 -65 0 0 -135 0 -135 -70 0 -70 0 0 -480 0 -480 -65 0 c-36 0 -65 3
-66 8 0 4 -1 586 -1 1295 l-1 1287 -68 0 -69 0 0 70 0 70 -70 0 -70 0 0 65 0
65 -65 0 -65 0 0 70 0 70 205 0 205 0 0 -70z m-3270 -2995 l0 -65 70 0 70 0 0
-70 0 -70 -70 0 -70 0 0 70 0 70 -65 0 -65 0 0 65 0 65 65 0 65 0 0 -65z
m3270 0 l0 -65 -70 0 -70 0 0 -70 0 -70 -70 0 -70 0 0 70 0 70 70 0 70 0 0 65
0 65 70 0 70 0 0 -65z"/>
</g>
</svg>
