<svg xmlns="http://www.w3.org/2000/svg" viewBox="0 0 359.76 68.81"><defs><style>.cls-1{fill:#fff;}.cls-2{fill:#f9de06;}</style></defs><g id="Layer_2" data-name="Layer 2"><g id="Layer_1-2" data-name="Layer 1"><path class="cls-1" d="M265.23,0c0,12.37,0,24.74,0,37.11,0,1.12-.34,1.31-1.34,1.27-1.95-.08-3.92-.09-5.87,0a1.78,1.78,0,0,1-1.9-1.18q-5.43-10.55-10.9-21c-.15-.28-.31-.54-.56-1a6.44,6.44,0,0,0-.1,2.25c.26,6.6.11,13.2.18,19.8,0,.91-.25,1.16-1.14,1.13-1.8-.07-3.6-.08-5.39,0-1,0-1.09-.31-1.09-1.15q0-18.61,0-37.23h8.63c-.12.36.14.61.28.88q5.08,9.84,10.19,19.67L257.58,23c0-2.26,0-4.48,0-6.69l0-16.35Z"/><path class="cls-1" d="M57.55,0l0,36.65c0,1.71,0,1.71-1.71,1.71-1.91,0-3.83,0-5.75,0a1.37,1.37,0,0,1-1.45-.9q-5.46-10.59-11-21.15c-.17-.33-.35-.66-.63-1.17,0,2.41,0,4.61,0,6.8q0,7.82.09,15.64c0,.55-.17.78-.75.78-2,0-4.08,0-6.12,0-.86,0-.73-.49-.73-1,0-4.5,0-9,0-13.49q0-11.94,0-23.88h8.63c-.16.31.08.52.2.76l8.81,17q1.39,2.71,2.81,5.41c0-3.92-.1-7.77-.08-11.62s0-7.71,0-11.57Z"/><path class="cls-1" d="M106.23,0a5.84,5.84,0,0,0,2.12.55C113,1.8,115.64,5,116,10a20.92,20.92,0,0,1-.4,6.87,9,9,0,0,1-4.83,6.19c-.66.32-.61.6-.39,1.15,1.79,4.37,3.54,8.75,5.35,13.11.36.85.22,1-.7,1-2.2-.06-4.39-.06-6.59,0a1.2,1.2,0,0,1-1.37-1c-1.46-3.94-3-7.85-4.46-11.8A1.41,1.41,0,0,0,101,24.55c-2.75.05-2.75,0-2.75,2.8,0,3.31,0,6.61,0,9.91,0,.91-.27,1.15-1.15,1.12-1.92-.07-3.84-.09-5.75,0-1.06,0-1.21-.35-1.2-1.28q0-18.55,0-37.11Zm-8,12.23c0,1.51,0,3,0,4.53,0,.57.08.9.77.88,1.52-.05,3,0,4.56,0A4.13,4.13,0,0,0,107.82,14a8.62,8.62,0,0,0,0-3.68,4.09,4.09,0,0,0-4.17-3.4c-1.52-.05-3,0-4.56,0-.73,0-.85.27-.83.9C98.26,9.28,98.23,10.76,98.23,12.23Z"/><path class="cls-1" d="M194.48,0a5.31,5.31,0,0,0,1.92.47c4.2,1,6.9,3.5,7.74,7.8a19.23,19.23,0,0,1-.34,9.32A8.35,8.35,0,0,1,199.39,23c-.85.41-.82.77-.51,1.53,1.76,4.21,3.46,8.44,5.17,12.67.49,1.19.49,1.2-.84,1.2-2.07,0-4.15,0-6.23,0a1.36,1.36,0,0,1-1.55-1.05c-1.46-3.94-3-7.86-4.46-11.8-.28-.77-.64-1.07-1.45-1s-2.18-.39-2.76.19-.17,1.81-.18,2.75c0,3.26,0,6.52,0,9.79,0,.78-.13,1.12-1,1.09-2-.07-4.08,0-6.12,0-.57,0-.86-.11-.86-.78q.06-18.8.07-37.59Zm-7.91,12.23c0,1.51,0,3,0,4.53,0,.66.16.91.86.88,1.23-.06,2.47,0,3.71,0,3.51,0,5.13-1.53,5.25-5a10.42,10.42,0,0,0-.16-2A4.09,4.09,0,0,0,192,6.94c-1.55-.05-3.11,0-4.66,0-.61,0-.83.15-.81.79C186.6,9.21,186.57,10.72,186.57,12.23Z"/><path class="cls-2" d="M346.76,0c.43.38,1,.21,1.47.32,5.4,1.14,8,4,8.67,9.49a18.91,18.91,0,0,1-.5,7.56A8.68,8.68,0,0,1,351.79,23c-.67.32-.72.62-.45,1.27,1.74,4.22,3.45,8.45,5.16,12.69.56,1.36.56,1.36-1,1.36-2,0-4,0-6,0a1.35,1.35,0,0,1-1.56-1c-1.42-3.88-2.94-7.72-4.36-11.6a1.5,1.5,0,0,0-1.71-1.19c-2.77.08-2.78,0-2.78,2.82,0,3.3,0,6.61,0,9.91,0,.92-.28,1.14-1.16,1.11-1.95-.06-3.91,0-5.87,0-.66,0-1-.09-1-.89q.06-18.73.05-37.47Zm-7.64,12.26c0,1.47,0,3,0,4.42,0,.69.15,1,.92,1,1.44-.06,2.88,0,4.32,0a4.24,4.24,0,0,0,4.47-3.81,8.75,8.75,0,0,0-.13-3.67,4.06,4.06,0,0,0-4-3.21c-1.6-.06-3.2,0-4.8,0-.62,0-.83.19-.82.82C339.15,9.24,339.13,10.75,339.12,12.26Z"/><path class="cls-2" d="M325.9,0c0,9.43.11,18.85,0,28.28-.1,6.1-3.73,9.71-9.85,10.42a28.82,28.82,0,0,1-8.94-.22c-5.15-1-8.05-4.27-8.51-9.51-.19-2.26-.12-4.52-.13-6.79,0-7,0-13.92,0-20.88,0-.43-.06-.87-.09-1.3h8.15c0,9-.05,18,0,27,0,3.37,1.83,5,5.21,5,.44,0,.88,0,1.32,0,2.93-.17,4.34-1.43,4.81-4.32a14.1,14.1,0,0,0,.15-2.25Q318,12.71,318,0Z"/><path class="cls-1" d="M144.12,0c0,2,0,4,0,6,0,.78-.2,1-1,1-4.44,0-8.87,0-13.3,0-.86,0-1.18.14-1.14,1.08.08,2.11.06,4.22,0,6.32,0,.78.2,1,1,1,3.64,0,7.27,0,10.91,0,.93,0,1.14.26,1.1,1.13q-.1,2.38,0,4.77c0,.82-.18,1.08-1,1.07-3.64-.05-7.27,0-10.91,0-.84,0-1.07.21-1,1,.06,2.34.05,4.69,0,7,0,.83.19,1.06,1,1,4.44,0,8.87,0,13.3,0,.82,0,1.11.17,1.08,1-.08,1.71-.05,3.42,0,5.13,0,.62-.09.92-.83.91-7.27,0-14.54,0-21.81,0-1,0-.85-.56-.85-1.15V1.43c0-.48,0-.95,0-1.43Z"/><path class="cls-1" d="M294,0c0,2.07,0,4.14.07,6.2,0,.85-.48.73-1,.73-4.47,0-8.95,0-13.42,0-.84,0-1.08.2-1.06,1q.11,3.17,0,6.32c0,.87.26,1,1.07,1,3.64,0,7.27,0,10.91,0,.84,0,1.08.2,1.05,1-.07,1.66-.07,3.34,0,5,0,.75-.22.92-.94.91-3.67,0-7.35,0-11,0-.83,0-1.09.18-1.07,1,.07,2.34.08,4.69,0,7,0,1,.34,1.07,1.16,1.06,4.39,0,8.79,0,13.18,0,.89,0,1.18.21,1.14,1.12-.08,1.7-.05,3.42,0,5.13,0,.6-.16.83-.8.83-7.27,0-14.54,0-21.81,0-1.1,0-.85-.69-.85-1.28q0-17.83,0-35.68c0-.47-.06-.95-.09-1.42Z"/><path class="cls-1" d="M232.61,0c0,2-.06,4,0,6,0,.8-.24,1-1,1-4.47,0-9,0-13.42,0-.92,0-1.15.24-1.12,1.13q.1,3.11,0,6.21c0,.82.19,1.07,1,1.06,3.64-.05,7.28,0,10.91,0,.89,0,1.18.19,1.14,1.11a44.65,44.65,0,0,0,0,4.77c0,.95-.3,1.1-1.15,1.09-3.6-.05-7.2,0-10.79,0-.85,0-1.19.13-1.16,1.08.08,2.31.07,4.62,0,6.93,0,.87.18,1.15,1.11,1.14,4.44-.06,8.87,0,13.31-.05.89,0,1.18.21,1.14,1.12-.08,1.71-.05,3.42,0,5.13,0,.62-.2.83-.82.83q-11,0-21.94,0c-.86,0-.73-.49-.73-1V0Z"/><path class="cls-1" d="M24.94,0c0,2-.1,4-.07,6,0,.78-.21,1-1,1-4.44,0-8.87,0-13.3,0-.93,0-1.23.21-1.19,1.16q.12,3,0,6.09c-.05,1,.32,1.15,1.21,1.14,3.59,0,7.19,0,10.78,0,.77,0,1,.17,1,1-.06,1.71-.05,3.42,0,5.13,0,.69-.21.86-.88.86-3.63,0-7.27,0-10.9,0-.88,0-1.25.14-1.21,1.15.08,2.26.06,4.53,0,6.8,0,.9.18,1.21,1.17,1.2,4.39-.06,8.78,0,13.17-.05.89,0,1.19.21,1.15,1.12-.07,1.71,0,3.42,0,5.13,0,.62-.2.83-.83.83q-10.89,0-21.8,0c-.59,0-.85-.13-.85-.79q0-18.79.06-37.58Z"/><path class="cls-1" d="M164.75,0c.42.45,1,.3,1.54.41,4.72,1.08,7.3,3.65,8.11,8.4a20.43,20.43,0,0,1-.15,7.83c-1,4.47-4.36,7.17-9.33,7.73a45.07,45.07,0,0,1-6.57.17c-1.2,0-1.62.21-1.58,1.51.1,3.73,0,7.47.06,11.21,0,.93-.28,1.14-1.15,1.12-2-.06-3.92-.07-5.87,0-.92,0-1.12-.27-1.12-1.14q0-17.91,0-35.81c0-.48,0-.95,0-1.43ZM160.1,6.93c-1,0-1.76,0-2.55,0-.55,0-.76.12-.76.72,0,3.05,0,6.11,0,9.16,0,.59.13.85.79.84,1.52-.05,3,0,4.54,0a4.06,4.06,0,0,0,4.18-3.24,8.69,8.69,0,0,0-.08-4.47,3.89,3.89,0,0,0-2.84-2.77A13.85,13.85,0,0,0,160.1,6.93Z"/><path class="cls-1" d="M86.81,0c-.21,2-.06,4.05-.07,6.08,0,.68-.21.87-.89.86-2.23,0-4.47,0-6.71,0-1,0-1.33.18-1.32,1.28.05,9.59,0,19.18.05,28.77,0,1.15-.28,1.5-1.45,1.44-1.83-.11-3.67-.08-5.51,0-.91,0-1.12-.26-1.12-1.14,0-9.67,0-19.34,0-29,0-1.13-.33-1.36-1.38-1.33-2.19.08-4.39,0-6.59,0-.68,0-.88-.18-.89-.86A58.7,58.7,0,0,0,60.91,0Z"/><path class="cls-1" d="M0,63.05a22.1,22.1,0,0,0,2.13-4.54c1.51-3.36,3-6.76,4.37-10.16.27-.66.66-.78,1.33-.86,1.52-.19,2.28.33,2.87,1.81,1.8,4.48,3.79,8.9,5.76,13.31.41.93.24,1.1-.74,1.08-2.87,0-2.89,0-3.94-2.59a1.17,1.17,0,0,0-1.3-.89c-1.44.06-2.88.06-4.31,0-.66,0-1.11.15-1.2.82-.35,2.4-1.84,3-4,2.65a3.78,3.78,0,0,0-.94.08Zm10.09-6c-.43-1.12-.87-2.25-1.31-3.38-.14-.36-.31-.7-.52-1.16-.26.67-.48,1.22-.7,1.77-1.3,3.31-1.3,3.31,2.35,2.87C10,57.1,10,57.06,10.09,57Z"/><path class="cls-1" d="M168.05,55.5c0-2.35,0-4.69,0-7,0-.69.11-1,.9-1,3.07,0,6.15,0,9.23,0,.65,0,.88.15.89.85.05,2.51.08,2.51-2.45,2.51-1.36,0-2.72,0-4.08,0-.66,0-.87.17-.88.85,0,2.06,0,2.06,2.06,2.06,1.36,0,2.72,0,4.07,0,.59,0,.84.11.87.78.1,2.6.13,2.6-2.5,2.6-1.24,0-2.48,0-3.71,0-.56,0-.75.14-.78.73-.14,2.42-.16,2.42,2.29,2.42,1.52,0,3,0,4.55,0,.76,0,.94.23.94,1,0,2.47.05,2.47-2.39,2.47-2.6,0-5.2-.05-7.79,0-1,0-1.26-.32-1.23-1.28C168.1,60.12,168.05,57.81,168.05,55.5Z"/><path class="cls-1" d="M232.34,62.76c0,1.81,0,3.48,0,5.14,0,.65-.14.89-.85.9-2.64,0-2.64.08-2.64-2.56,0-4.18,0-8.36,0-12.53,0-.91.18-1.34,1.16-1.18a4.87,4.87,0,0,0,1.08,0c.77-.06,1.31.07.85,1.34a5.31,5.31,0,0,1,4.13-1.57,5.15,5.15,0,0,1,3.67,2,6.72,6.72,0,0,1-.41,8.07C237.63,64.26,235,64.44,232.34,62.76Zm2.36-7.38a2.45,2.45,0,0,0-2.6,2.73,2.51,2.51,0,0,0,2.62,2.74A2.55,2.55,0,0,0,237.41,58,2.51,2.51,0,0,0,234.7,55.38Z"/><path class="cls-1" d="M351.23,62.78c0,1.81,0,3.47,0,5.14,0,.66-.18.87-.87.88-2.65,0-2.65.07-2.65-2.52,0-4.21,0-8.42,0-12.63,0-.84.13-1.3,1.08-1.12a2.57,2.57,0,0,0,.83,0c.86-.13,1.47,0,1.34,1.13,3-1.89,5.61-1.74,7.41.32a6.71,6.71,0,0,1-.14,8.36C356.55,64.24,353.91,64.46,351.23,62.78Zm2.39-1.93a2.74,2.74,0,1,0-2.73-2.7A2.61,2.61,0,0,0,353.62,60.85Z"/><path class="cls-1" d="M54,64.06c-4.47,0-7.6-2.19-8.65-5.61a8.76,8.76,0,0,1,3.1-9.89c2.82-1.89,7.13-1.94,9.6-.09,1.19.88,1.19,1,.1,1.85a5.76,5.76,0,0,0-.65.53c-.67.79-1.23.84-2.15.17A4.2,4.2,0,0,0,50,52a5.76,5.76,0,0,0-.08,7.08,4.11,4.11,0,0,0,6.2.39c.06,0,.1-.17.15-.18,1.36-.16,1.91,1.11,2.88,1.63.72.39,0,.76-.18,1A6.85,6.85,0,0,1,54,64.06Z"/><path class="cls-1" d="M331.08,53.7a4.2,4.2,0,0,1,3.43-1.41,3.42,3.42,0,0,1,3.57,3,60.59,60.59,0,0,1,.2,7.74c0,.47-.23.62-.67.61-.64,0-1.28,0-1.91,0s-1-.17-.95-.92c.06-1.75,0-3.5,0-5.25,0-1.49-.63-2.17-1.81-2.13a1.7,1.7,0,0,0-1.79,1.82c-.09,1.83-.1,3.66-.06,5.49,0,.8-.25,1-1,1-2.5,0-2.5,0-2.5-2.46,0-4.58,0-9.15,0-13.72,0-.91.25-1.13,1.13-1.11,2.4,0,2.4,0,2.4,2.36Z"/><path class="cls-1" d="M136.16,58.06c0-3.43,2.58-5.79,6.26-5.76a5.68,5.68,0,0,1,6,5.85,6.15,6.15,0,0,1-12.28-.09Zm8.77.07a2.43,2.43,0,0,0-2.58-2.75,2.74,2.74,0,0,0,0,5.47A2.47,2.47,0,0,0,144.93,58.13Z"/><path class="cls-1" d="M64.32,59.23c.8,2.14,2.78,2.71,4.28,1.26.63-.62.92-.36,1.43,0,1.81,1.35,1.8,1.68-.24,2.73a6.61,6.61,0,0,1-7.43-1.08,6,6,0,0,1-.91-6.85,6.24,6.24,0,0,1,7.22-2.77c2.31.73,3.81,3.43,3.5,6.14-.07.64-.43.54-.81.54Zm2.11-2.39c.47,0,.95,0,1.42,0,1,.07.87-.4.54-1a2.25,2.25,0,0,0-3.71-.09c-.2.28-.5.62-.31,1s.57.1.87.12S66,56.84,66.43,56.84Z"/><path class="cls-1" d="M100.83,59.23c.56,2,2.58,2.74,4,1.45.81-.76,1.23-.55,1.93,0,1.53,1.19,1.54,1.36-.11,2.37a6.57,6.57,0,0,1-7.75-.82A6,6,0,0,1,98.11,55a6.33,6.33,0,0,1,7.29-2.34,5.9,5.9,0,0,1,3.22,6.11c-.1.65-.51.49-.86.49Zm-.13-2.39c1.27,0,2.42,0,3.57,0s.9-.47.53-1.07a2,2,0,0,0-2.15-.91A2.23,2.23,0,0,0,100.7,56.84Z"/><path class="cls-1" d="M222.23,59.23c-1,0-2,0-3,0-.24,0-.59-.18-.73.17s.13.53.27.75a2.45,2.45,0,0,0,3.56.59c.93-.93,1.45-.55,2.23.06,1.3,1,1.34,1.08,0,2a6.56,6.56,0,0,1-7.87-.46,6,6,0,0,1-1.06-7.22,6.24,6.24,0,0,1,7.09-2.62c2.95.91,3.68,3.85,3.47,6.33,0,.51-.44.36-.72.36C224.38,59.24,223.3,59.23,222.23,59.23Zm.54-2.39a2,2,0,0,0-1.65-2,2.23,2.23,0,0,0-2.46,1c-.33.53-.44,1,.47.92C220.32,56.81,221.51,56.84,222.77,56.84Z"/><path class="cls-1" d="M259.93,59.23h-3c-.26,0-.61-.15-.76.13s.11.6.29.85a2.51,2.51,0,0,0,3.77.37c.67-.64,1.05-.46,1.65,0,1.71,1.3,1.7,1.57-.25,2.6a6.41,6.41,0,0,1-8.06-1.65,5.89,5.89,0,0,1,.79-7.7,6.48,6.48,0,0,1,6.83-1,5.89,5.89,0,0,1,2.65,5.85c-.06.52-.29.54-.69.54Zm-1.68-2.39c.47,0,.95,0,1.43,0,.88.09.79-.33.52-.89a2.27,2.27,0,0,0-3.79-.2c-.18.26-.41.55-.3.87s.54.18.83.21S257.81,56.84,258.25,56.84Z"/><path class="cls-1" d="M286.73,59.23c-1,0-2,0-3,0-.24,0-.59-.18-.73.17s.13.53.28.75a2.45,2.45,0,0,0,3.56.59c.92-.86,1.45-.57,2.23.07,1.29,1,1.33,1.06,0,2a6.55,6.55,0,0,1-7.87-.47,5.93,5.93,0,0,1-1.11-7.1,6.2,6.2,0,0,1,7.14-2.73c2.95.9,3.68,3.84,3.47,6.33-.05.51-.45.36-.73.36C288.89,59.24,287.81,59.23,286.73,59.23Zm.55-2.39a2,2,0,0,0-1.76-2,2.21,2.21,0,0,0-2.35,1c-.31.52-.48,1,.45.93C284.81,56.81,286,56.84,287.28,56.84Z"/><path class="cls-1" d="M77.89,53.9a4.42,4.42,0,0,1,4.54-1.5,3.27,3.27,0,0,1,2.68,3A67,67,0,0,1,85.28,63c0,.29,0,.62-.38.63-.92,0-1.84.05-2.76,0-.52-.05-.32-.56-.33-.88,0-1.71,0-3.42,0-5.13s-.57-2.24-1.71-2.24-1.85.66-1.92,2.21c-.07,1.71-.07,3.42,0,5.13,0,.72-.19,1-.94,1-2.55,0-2.55.07-2.55-2.43s0-5.18,0-7.77c0-.81.25-1.06,1-1a4.82,4.82,0,0,0,1.2,0C77.66,52.41,78.15,52.66,77.89,53.9Z"/><path class="cls-1" d="M28.24,53.87a4.36,4.36,0,0,1,3.61-1.58,3.44,3.44,0,0,1,3.6,3.13A62.29,62.29,0,0,1,35.64,63c0,.29,0,.61-.39.62-.92,0-1.84.05-2.75,0-.57,0-.35-.54-.36-.85,0-1.75,0-3.5,0-5.25,0-1-.18-2-1.42-2.15a1.73,1.73,0,0,0-2.18,1.76c-.1,1.82-.1,3.65-.05,5.47,0,.86-.28,1.07-1.09,1.06-2.44,0-2.44,0-2.44-2.4,0-2.62,0-5.24,0-7.86,0-.77.22-1,.94-.9a5.26,5.26,0,0,0,1.19,0C27.88,52.44,28.58,52.46,28.24,53.87Z"/><path class="cls-1" d="M300.54,62.26A4.36,4.36,0,0,1,296,63.79a3.27,3.27,0,0,1-2.68-3.09,72.4,72.4,0,0,1-.15-7.51c0-.22-.06-.58.22-.6a24.86,24.86,0,0,1,3,0c.43,0,.25.51.25.8,0,1.75,0,3.5,0,5.24,0,1.47.57,2.17,1.63,2.22,1.22,0,1.93-.65,2-2.15.08-1.74.08-3.5,0-5.24,0-.73.19-.94.94-.94,2.56,0,2.56-.05,2.56,2.51s0,5.17,0,7.75c0,.66-.16,1-.86.9a6.47,6.47,0,0,0-1.32,0C300.74,63.8,300.26,63.53,300.54,62.26Z"/><path class="cls-1" d="M185.58,53.72a4.44,4.44,0,0,1,2.65-1.4c2.71-.34,4.42,1,4.56,3.74.11,2.3,0,4.61.07,6.91,0,.5-.15.67-.67.72-2.75.23-2.74.25-2.75-2.46,0-1.23,0-2.46,0-3.69-.08-1.5-.61-2.14-1.69-2.16s-1.77.53-2,2a41.63,41.63,0,0,0-.08,5.24c0,.73-.13,1-1,1-2.46,0-2.46,0-2.46-2.39,0-2.63,0-5.25,0-7.87,0-.74.19-1,.93-.91a7.17,7.17,0,0,0,1.31,0C185.25,52.48,185.93,52.49,185.58,53.72Z"/><path class="cls-1" d="M269.72,53.79a4.3,4.3,0,0,1,2.71-1.48c2.74-.26,4.38,1.07,4.52,3.82.11,2.26,0,4.53.09,6.79,0,.56-.18.74-.75.77-2.72.15-2.7.17-2.73-2.5a26.62,26.62,0,0,0-.11-4.28c-.15-.92-.59-1.54-1.64-1.54a1.68,1.68,0,0,0-1.84,1.5,33,33,0,0,0-.11,5.71c0,.91-.26,1.13-1.14,1.11-2.34,0-2.34,0-2.34-2.27,0-2.67,0-5.33,0-8,0-.76.22-1,.94-.9a5.26,5.26,0,0,0,1.19,0C269.32,52.44,269.9,52.59,269.72,53.79Z"/><path class="cls-1" d="M128.87,59.4c0-1-.06-2,0-3,.06-.82-.18-1.21-1-1-1.52.29-1.11-.81-1.21-1.61-.11-1,.18-1.43,1.21-1.23.84.15,1.15-.2,1-1a6.86,6.86,0,0,1,0-1.2c.1-4,2.9-4.45,5.9-4,.43.06.5.28.48.64a8,8,0,0,0-.05,1.19c0,.81-.1,1.28-1.12,1a1.22,1.22,0,0,0-1.52.65,4,4,0,0,0-.09,2.57c.11.4.88.19,1.33.15.87-.08,1.29.16,1.13,1.09a2.17,2.17,0,0,0,0,.72c.12.82-.21,1.2-1.05,1-1.26-.23-1.6.28-1.53,1.51.11,2,0,4,0,6,0,.58-.12.82-.78.84-2.74.11-2.74.13-2.74-2.62Z"/><path class="cls-1" d="M320.79,52.31a6,6,0,0,1,3.53.92c.49.34.67.63.11,1.07a4.83,4.83,0,0,0-.84.85c-.47.6-.91.79-1.53.16a1.68,1.68,0,0,0-.88-.33c-.62-.1-1.3-.06-1.49.63s.53.86,1.05,1c.69.19,1.4.31,2.09.51a3.08,3.08,0,0,1,2.5,2.84,3.21,3.21,0,0,1-2.2,3.46,7.74,7.74,0,0,1-6.48-.36c-.64-.34-.94-.73-.24-1.32a2.38,2.38,0,0,0,.47-.53c.58-.87,1.14-1.26,2.09-.34a2.51,2.51,0,0,0,2.19.28c.34-.06.62-.21.67-.58a.66.66,0,0,0-.52-.71c-.6-.2-1.21-.38-1.83-.53-2.53-.63-3.55-1.7-3.36-3.58s1.74-3.29,4.07-3.44C320.39,52.3,320.59,52.31,320.79,52.31Z"/><path class="cls-1" d="M198.49,49.29c1.72,0,1.79,0,1.69,1.69-.06,1.16.14,1.79,1.49,1.58.46-.07,1.27-.29,1.41.19a5.68,5.68,0,0,1,0,2.36c-.07.47-.6.25-.93.26-2,.05-2,0-2,2,0,.59,0,1.19,0,1.79,0,1.51.48,1.94,2,1.73.84-.12,1,.13,1,.88,0,2.05,0,2.08-2.1,2.13-3.08.07-4.57-1.2-4.36-4.11.08-1.15,0-2.31,0-3.46,0-.77-.2-1.05-1-1-.4,0-1.1.34-1.2-.34a4.32,4.32,0,0,1,.09-2.34c.13-.31.67-.17,1-.12.94.15,1.22-.26,1.08-1.12a2.17,2.17,0,0,1,0-.36C196.77,49,196.45,49.32,198.49,49.29Z"/><path class="cls-1" d="M90.88,49.29c1.69,0,1.69,0,1.69,1.7,0,1.55,0,1.52,1.57,1.56.47,0,1.23-.33,1.38.27a4.64,4.64,0,0,1,0,2.34c-.13.47-.86.19-1.31.2-1.59,0-1.59,0-1.59,1.55,0,.76,0,1.51,0,2.27.06,1.48.54,1.93,2,1.73.73-.09,1,0,1,.82-.05,2.12,0,2.14-2.19,2.2a5.11,5.11,0,0,1-3-.66,2.68,2.68,0,0,1-1.28-2.41c0-1.43,0-2.87,0-4.3,0-.88-.14-1.33-1.15-1.21-.36,0-1,.31-1.08-.35a3.84,3.84,0,0,1,.11-2.33c.2-.36.89-.14,1.36-.12s.81-.17.74-.74a7.85,7.85,0,0,1,0-.84C89.16,49.29,89.16,49.29,90.88,49.29Z"/><path class="cls-1" d="M209.23,54a3.52,3.52,0,0,1,3.46-1.76c.56,0,.78.21.75.78,0,.79,0,1.58,0,2.45l-.71-.09c-2.51-.28-3.56.63-3.6,3.17,0,1.43,0,2.86,0,4.29,0,.62-.2.79-.82.81-2.71.09-2.7.11-2.7-2.52s0-5,0-7.51c0-1,.33-1.25,1.22-1.13a5.73,5.73,0,0,0,.83,0C209.06,52.54,209.06,52.54,209.23,54Z"/><path class="cls-1" d="M246.83,53.93a3.76,3.76,0,0,1,3.43-1.65c.6,0,.91.18.82.82a2,2,0,0,0,0,.35c0,.64.21,1.43-.09,1.86s-1.13,0-1.73.06a2.24,2.24,0,0,0-2.35,2.08,29.45,29.45,0,0,0-.13,5.23c0,.75-.16,1-1,1-2.55,0-2.55,0-2.55-2.56s0-5.09,0-7.63c0-.79.22-1.08,1-1a4.82,4.82,0,0,0,1.2,0C246.46,52.4,247.07,52.65,246.83,53.93Z"/><path class="cls-1" d="M310.25,53.86a4,4,0,0,1,3.52-1.57c.56,0,.82.21.77.77,0,.2,0,.4,0,.6,0,1.69,0,1.69-1.63,1.72s-2.53.76-2.62,2.42-.08,3.33-.06,5c0,.67-.21.87-.88.89-2.64.07-2.64.1-2.64-2.56s0-5.15,0-7.73c0-.65.13-.95.84-.87a8.54,8.54,0,0,0,1.43,0C309.81,52.49,310.6,52.47,310.25,53.86Z"/><path class="cls-1" d="M154.44,53.78a3.88,3.88,0,0,1,3.41-1.5c.63,0,.88.25.81.86,0,.15,0,.31,0,.47,0,1.72,0,1.72-1.7,1.77a2.27,2.27,0,0,0-2.54,2.38c-.09,1.66-.09,3.33-.06,5,0,.75-.25.93-1,.94-2.56,0-2.56.06-2.56-2.51s0-5.16,0-7.74c0-.73.17-1,.92-.91a5.7,5.7,0,0,0,1.43,0C154.06,52.42,154.55,52.68,154.44,53.78Z"/><path class="cls-1" d="M114.57,53.94a3.89,3.89,0,0,1,3.55-1.66c.64,0,.87.27.8.87,0,.12,0,.24,0,.36a4.28,4.28,0,0,1-.14,1.85c-.14.24-1.08,0-1.66,0a2.25,2.25,0,0,0-2.48,2.33c-.09,1.67-.1,3.34-.08,5,0,.72-.19,1-.94,1-2.55,0-2.55.07-2.55-2.44s0-5.17,0-7.76c0-.81.25-1.06,1-1a5.35,5.35,0,0,0,1.2,0C114.21,52.43,114.89,52.57,114.57,53.94Z"/><path class="cls-1" d="M344.6,58c0,1.63,0,3.26,0,4.89,0,.55-.14.74-.73.77-2.78.15-2.78.17-2.78-2.56,0-2.54,0-5.09,0-7.63,0-.79.23-1,1-1,2.52,0,2.52,0,2.52,2.53Z"/><path class="cls-1" d="M22,58.15c0,1.55,0,3.1,0,4.65,0,.69-.22.87-.89.89-2.67.07-2.67.09-2.67-2.56s0-5.09,0-7.63c0-.81.24-1,1-1,2.55,0,2.55,0,2.55,2.53Z"/><path class="cls-1" d="M20.15,51.11A2,2,0,0,1,18.24,49a2,2,0,0,1,4,.2A2,2,0,0,1,20.15,51.11Z"/><path class="cls-1" d="M342.87,51.11a2,2,0,0,1-2-2,2,2,0,1,1,4,0A1.93,1.93,0,0,1,342.87,51.11Z"/></g></g></svg>