<svg xmlns="http://www.w3.org/2000/svg" viewBox="0 0 1218.96 291.03"><defs><style>.cls-1{fill:#fff;}</style></defs><g id="Layer_2" data-name="Layer 2"><g id="Layer_1-2" data-name="Layer 1"><path class="cls-1" d="M401.32,15.37l-7.7,12.71c-4-2.27-7.89-4.59-11.88-6.65a31.34,31.34,0,0,0-18.85-3.05c-7.34,1-12.63,5.15-15.5,12a28.23,28.23,0,0,0-.28,21.11c4,10.84,13.73,16,25.15,13.24,3.6-.87,7-2.67,10.43-4.14a3.69,3.69,0,0,0,2.42-4.17,51.92,51.92,0,0,1,0-5.47H363.71V35.59h37V38c0,9.47,0,18.94,0,28.41a4.5,4.5,0,0,1-.89,2.94c-11,10.65-29.86,17.11-45.2,11.48-14.91-5.49-22.81-16.75-25.12-32.07-1.73-11.49,0-22.5,6.93-32.09,7.17-10,17-15.18,29.5-15.62,13.33-.46,24.57,4.2,34.28,13.05C400.5,14.43,400.82,14.83,401.32,15.37Z"/><path class="cls-1" d="M64.84,28.08c-4.06-2.3-7.91-4.65-11.92-6.69a32.27,32.27,0,0,0-18.86-3c-8.25,1-14.42,7-16.62,15.71-3,11.69,1.19,23.47,10.35,28.86,6.53,3.84,13.35,2.94,20.15.67.63-.21,1.26-.44,1.88-.69C56,60.36,57.25,58.06,56,51H34.88V35.6h37v8c0,7.71,0,15.42,0,23.13a4.19,4.19,0,0,1-1.08,2.83c-11.49,10-24.68,15.4-40,12.46C15,79,5.41,68.69,1.6,53.36-1.28,41.73-.49,30.12,5.75,19.57,12.79,7.66,23.48,1.5,37.43,1c13-.43,24,4.19,33.66,12.73,1.24,1.11,1.39,1.93.47,3.35C69.2,20.75,67,24.5,64.84,28.08Z"/><path class="cls-1" d="M253.47,2.14c9.62,0,19.09-.05,28.57,0,4.85,0,9.78-.16,14.55.55,10.37,1.54,17.25,9.71,17.6,20.15.44,13.39-5,21.88-17.35,27-.37.15-.73.34-1.38.64,3.12,4.16,6.11,8.16,9.12,12.14,3.48,4.61,7.09,9.13,10.42,13.84.91,1.29,1,3.13,1.66,5.2-6.05,0-11.39.06-16.73-.08-.7,0-1.52-.94-2-1.62-6.75-8.75-13.54-17.48-20.13-26.36-2-2.69-4.47-1.42-7.2-1.81V81.53H253.47Zm17.11,32.69c5.85,0,11.36,0,16.87,0a16.53,16.53,0,0,0,3.95-.57,8.42,8.42,0,0,0,6.15-8.44c-.32-4.06-2.75-6.79-7.12-7.06-6.09-.38-12.21-.31-18.32-.34-.51,0-1.45.74-1.46,1.15C270.55,24.54,270.58,29.54,270.58,34.83Z"/><path class="cls-1" d="M87.57,42c-.23-10.56,2.34-20.28,9.19-28.5C103.77,5.05,113,.85,123.88.1c21-1.45,38.74,13.21,41.53,35.22,1.56,12.24-.2,23.93-8,34C146.89,83,126.9,88,111.13,80.86,95.8,74,88.6,61.62,87.58,45.25,87.51,44.16,87.57,43.07,87.57,42Zm61.94,1.85a85.87,85.87,0,0,0-1.08-8.71c-2.07-8.72-7-15.11-16-17.19s-17.27-.19-23.19,7.53c-5.35,7-5.95,15.07-4.49,23.42A21.19,21.19,0,0,0,123.21,66.5c10.92,1.3,19.91-3.26,23.7-12.5C148.34,50.51,148.82,46.64,149.51,43.83Z"/><path class="cls-1" d="M716.38,81.69c-2.51,0-4.94.14-7.34-.07a4.24,4.24,0,0,1-2.37-1.55q-18.51-21.21-37-42.48a8.36,8.36,0,0,0-.92-.75v44.7H651.84V2.15c3.33,0,6.58-.1,9.81.07.73,0,1.54.89,2.1,1.54Q680.42,22.92,697,42.11c.74.86,1.53,1.69,2.84,3.11V2.29h16.51Z"/><path class="cls-1" d="M492.05,81.52V2.15c3.32,0,6.58-.16,9.79.1.92.08,1.85,1.28,2.59,2.13q16.24,18.67,32.44,37.39c.82.94,1.68,1.84,3,3.33V2.3h16.75V81.69c-2.62,0-5.13.14-7.6-.08A4.26,4.26,0,0,1,546.72,80q-18.51-21.21-37-42.47a11.43,11.43,0,0,0-.94-.75V81.52Z"/><path class="cls-1" d="M736.74,56.25c3.85,2.07,7.46,4,11,6,6.42,3.5,13.13,5.07,20.31,2.8a21.87,21.87,0,0,0,6.29-3c4.08-3,3.69-8.37-1-10.28-3.73-1.53-7.89-2-11.87-2.91-6-1.37-12.22-2.24-18-4.18-7.72-2.57-12-9.45-12.36-17.25-.85-16.18,9.45-24,22.48-26.23,13.65-2.36,25.91,1.17,37,9.15a2.34,2.34,0,0,1,.93,1.92c-1.46,4.43-3.09,8.81-4.64,13.14-3.82-1.85-7.41-3.81-11.17-5.37a33.3,33.3,0,0,0-19.91-2.24,17.38,17.38,0,0,0-6.36,2.76c-3.5,2.48-3.24,6.8.72,8.35a51,51,0,0,0,12.13,2.86c6.74.88,13.52,1.4,19.69,4.59C789.11,40,792.77,46,793.13,53.87a37.06,37.06,0,0,1-.36,8.75c-2.13,11.05-9.92,16.4-20.11,18.92-14.88,3.69-28.17.07-40.12-9.17a2.18,2.18,0,0,1-.75-1.83C733.35,65.79,735.05,61.09,736.74,56.25Z"/><path class="cls-1" d="M197.79,49.8V65.38h38.64V81.55h-56V2.31h54.68v16H197.54c0,5.12-.06,9.94.1,14.76,0,.4,1.46,1.08,2.25,1.09,8.81.08,17.62,0,26.42,0h3.08V49.8Z"/><path class="cls-1" d="M474.57,81.62h-56V2.31h54.65v16h-2.74c-10.57,0-21.14.07-31.71-.05-2.34,0-3.31.48-3.14,3,.2,3.17,0,6.36,0,9.55s0,3.32,3.19,3.32h28.73V49.79H435.74c0,5,0,9.64,0,14.31,0,1.75,1.48,1.26,2.46,1.26q16.62,0,33.23,0h3.12Z"/><path class="cls-1" d="M1219,65.38V81.47h-56V2.27h54.72V18.34h-2.89c-10.57,0-21.14.08-31.71-.06-2.49,0-3.14.75-3,3.12.18,4.09,0,8.19,0,12.63h31.83V49.8h-31.83c0,3.86,0,7.5,0,11.15,0,5.24-.46,4.4,4.39,4.42,10.48,0,21,0,31.46,0Z"/><path class="cls-1" d="M999.53,2.27h17.23V5.35c0,11.23-.19,22.46.1,33.68a53.26,53.26,0,0,0,2,14.58c3.26,10.35,14.31,14.68,22.92,9.43,5.07-3.1,7.49-8,8.61-13.6a58,58,0,0,0,1-10.94c.13-12,0-24,0-36.15h17a12.48,12.48,0,0,1,.18,1.58c0,13.83.14,27.65-.09,41.48-.15,9-2.51,17.52-7.94,24.94a29.32,29.32,0,0,1-22.07,12.32c-8.38.72-16.44-.37-23.55-5.26-9-6.21-13.42-15.3-14.74-25.8-.81-6.45-.65-13-.72-19.56C999.46,22.18,999.53,12.31,999.53,2.27Z"/><path class="cls-1" d="M609.05,225q302.06,0,604.09,0a16.89,16.89,0,0,1,3.57.77c-.66,2.06-2.38,1-3.56,1q-604.08.08-1208.17,0a13.61,13.61,0,0,1-3.44-.92A13.89,13.89,0,0,1,5,225.05Q307,225,609.05,225Z"/><path class="cls-1" d="M870.55,2.3V18.18c-.91.05-1.79.15-2.67.15-6.71,0-13.42.09-20.13,0-2,0-2.53.58-2.52,2.55.07,19.19,0,38.38,0,57.56v3.13h-17.7V18.42H802.33V2.3Z"/><path class="cls-1" d="M1106.94,18.4h-25.51V2.32h68.13V18.37h-25.1V81.56h-17.52Z"/><path class="cls-1" d="M943.81,18.37H918.36V2.31h68v16h-25V81.5H943.81Z"/><path class="cls-1" d="M930,191.56c-4.18,1.28-6.81-.31-9.41-3.59-13.62-17.2-27.49-34.2-41.28-51.27a13.84,13.84,0,0,0-1.12-1v56.09h-9.76V117.26c2.3,0,4.7-.09,7.07.06.57,0,1.17.83,1.62,1.39q21.43,26.46,42.84,52.93a5.32,5.32,0,0,0,.8.58V117.38H930Z"/><path class="cls-1" d="M198.1,160.47l23.34,31.36c-4,0-7.35.07-10.65-.06-.57,0-1.21-.82-1.65-1.38q-10.71-13.95-21.35-27.95a4.28,4.28,0,0,0-4-2c-3.26.14-6.53,0-10.12,0v31.24h-9.9V116.91h2.4c9.39,0,18.79-.08,28.18,0,5.39.07,10.7.78,15.35,3.88,7,4.7,10,11.45,9.16,19.66s-5.6,14-13,17.47A63.35,63.35,0,0,1,198.1,160.47Zm-24.33-35.31V152a6.83,6.83,0,0,0,1.06.2c7.12,0,14.25.08,21.36-.18A13.93,13.93,0,0,0,209.6,138.4c0-7.23-5.64-12.88-13.39-13.14-6.28-.22-12.57-.08-18.86-.1Z"/><path class="cls-1" d="M272.11,191.84V117.41a9,9,0,0,1,1.31-.18c10.74,0,21.51-.43,32.22.17,11.31.63,20.19,6.26,26.36,15.78,9.14,14.11,7.61,34.81-3.59,47.06a34.09,34.09,0,0,1-24.61,11.53C293.34,192.1,282.86,191.84,272.11,191.84Zm9.89-8c7,0,13.78.27,20.54-.07A25.81,25.81,0,0,0,321.66,174c7.29-8.83,8.17-19,5.22-29.63-2.66-9.56-9.05-15.8-18.57-18.31-8.58-2.27-17.45-.9-26.31-1.2Z"/><path class="cls-1" d="M67.89,154.51c-.75-21.22,17.48-38.44,39.71-38.5s40.51,17.85,40,39.26-17.84,38.14-40.27,37.86C84.24,192.83,67.08,174.83,67.89,154.51Zm70.08.15c0-16.94-13.36-30.5-30.3-30.25-17.8.26-30.5,13.39-30.38,30.46s13.14,29.66,30.48,29.79A29.58,29.58,0,0,0,138,154.66Z"/><path class="cls-1" d="M807.29,125.06v25.3h35.09v8.07h-35v25.21h44.43v8.09H797.36V117.07h53.19v8Z"/><path class="cls-1" d="M1086.15,117.1v8.06h-3.05c-12.67,0-25.34,0-38,0-1.95,0-2.63.49-2.6,2.52q.18,10.19,0,20.37c0,2.07.71,2.5,2.63,2.48,10-.08,20,0,30,0H1078v8.06h-35.24v25.2h44.45v8H1033V117.1Z"/><path class="cls-1" d="M659.16,125.86l-4.65,6.68c-1.4-.9-2.7-1.77-4-2.58-8.86-5.36-18.36-7.23-28.43-4.55a20.73,20.73,0,0,0-7.91,4.11c-5.42,4.63-4.42,11.52,1.89,14.78,6,3.08,12.56,4,19,5.3a89.43,89.43,0,0,1,13.31,3.56c6.71,2.51,11.33,7.2,12.18,14.64.92,8.06-1.74,14.72-8.66,19.3-6.58,4.35-14,5.76-21.76,6-10.56.25-20.1-2.85-29.07-8.93L605,176.9c4,1.86,7.72,3.88,11.68,5.4,9.64,3.69,19.21,3.48,28.3-1.71a14,14,0,0,0,4.84-4.93c3-5,1.31-11.08-4-13.37-4.25-1.82-8.94-2.63-13.47-3.78-6.23-1.58-12.54-2.91-18.72-4.67a20.65,20.65,0,0,1-5.88-3.3c-10-7.09-8.5-23.8,3.38-30,8.44-4.41,17.44-5.12,26.65-4a41.94,41.94,0,0,1,19.66,7.73c.41.3.82.58,1.21.9A5.37,5.37,0,0,1,659.16,125.86Z"/><path class="cls-1" d="M414.92,191.87c-3.22,0-6.22.08-9.21-.07-.55,0-1.28-.9-1.55-1.54-2-4.7-3.9-9.42-5.72-14.19a2.64,2.64,0,0,0-2.92-2q-15.84.12-31.7,0a2.76,2.76,0,0,0-3.05,2.18c-1.68,4.54-3.66,9-5.36,13.5a2.91,2.91,0,0,1-3.36,2.18c-2.41-.15-4.84,0-7.64,0,2.22-5.3,4.3-10.3,6.4-15.29,7.93-18.87,15.9-37.73,23.74-56.64.87-2.09,1.85-2.89,4.18-2.81,5.48.2,5.46.07,7.57,5.17q13.9,33.72,27.84,67.43C414.38,190.35,414.59,191,414.92,191.87ZM394.34,166c-4.89-11.6-9.69-23-14.74-35L365,166Z"/><path class="cls-1" d="M483.47,191.89,491.4,173c7.39-17.58,14.83-35.14,22.12-52.76.93-2.23,1.94-3.19,4.51-3.07,5.21.25,5.22.07,7.42,5.39q13.89,33.63,27.77,67.25c.25.6.43,1.23.72,2.1-3.15,0-6.08.08-9-.07a2.48,2.48,0,0,1-1.64-1.42q-3-7.17-5.84-14.43a2.5,2.5,0,0,0-2.75-1.89q-16,.1-32,0c-1.64,0-2.31.59-2.87,2.08-1.73,4.62-3.68,9.15-5.46,13.75a2.63,2.63,0,0,1-3,2C489,191.78,486.45,191.89,483.47,191.89ZM504,165.94h29.38L518.66,131Z"/><path class="cls-1" d="M1015.72,128l-4.64,6.78c-5-2.74-9.54-5.8-14.51-7.84-16.26-6.67-33.78.85-39.48,17-5.57,15.82,1.22,33.73,18.91,39.48,9.7,3.15,18.89.76,27.47-4.22,2.73-1.59,5.25-3.56,8-5.47l5.38,6.34a43.21,43.21,0,0,1-19.54,11.2c-13.56,3.61-26.31,2.09-37.6-6.71S944,163.89,945.59,150c1.69-14.7,9.75-25.37,23.38-30.86C986.1,112.2,1001.54,116.74,1015.72,128Z"/><path class="cls-1" d="M740.23,173.66l5.49,6.45c-1.6,1.36-3.05,2.71-4.62,3.9-14,10.56-36.89,13.44-53,.24a36.25,36.25,0,0,1-13.85-27.56c-.56-11.83,3.18-21.95,11.79-30,9.62-9,21.16-12,34.12-10.07a47.5,47.5,0,0,1,24.31,11.54l-4.87,7.11c-1.57-1.13-3-2.2-4.48-3.23-8.21-5.74-17.29-8.85-27.26-6.86C695,127.68,687.38,136,684.61,148.62A29.72,29.72,0,0,0,706.76,184c10.58,2.47,20-.84,28.71-6.75C737.05,176.13,738.54,174.92,740.23,173.66Z"/><path class="cls-1" d="M615.09,2.22h17.15v79.3H615.09Z"/><path class="cls-1" d="M47.65,152.07v8.23H44.58c-9.4,0-18.8.08-28.2-.06-2.3,0-2.78.72-2.76,2.86.11,9.46.05,18.92.05,28.58H4.11V117.06H56.55v8H13.84v27Z"/><path class="cls-1" d="M885.93,2.23h16.86V81.52H885.93Z"/><path class="cls-1" d="M455.52,125.14v66.57h-9.86V125.34h-29.5v-7.89h68.39v7.69Z"/><path class="cls-1" d="M775.37,191.77h-9.29V117.38h9.29Z"/><path class="cls-1" d="M271,290.16c-1.94.66-3-.23-4.13-1.6-5.82-7.33-11.71-14.61-17.59-21.9a11.83,11.83,0,0,0-1-1v24.53h-3.87V257.91c2.07-.76,3.39,0,4.76,1.77C254.82,267,260.69,274.16,267,282V257.75h4Z"/><path class="cls-1" d="M657.68,290.88c-10.14,0-17.64-7.2-17.63-16.91s7.57-16.85,18-16.82c10,0,17.63,7.51,17.54,17.09S668,290.9,657.68,290.88Zm0-3.52a13.36,13.36,0,1,0,.24-26.71c-7.4-.11-13.87,5.93-13.77,13.38C644.23,281.88,650.08,287,657.66,287.36Z"/><path class="cls-1" d="M540,290.88c-10.14,0-17.78-7.22-17.8-16.81s7.67-16.94,17.95-16.92c10,0,17.71,7.44,17.7,17S550.24,290.88,540,290.88Zm.09-3.52c7.7-.27,13.74-5.53,13.59-13.46s-6-13.15-13.61-13.17c-7.8,0-13.8,5.51-13.72,13.57S532.83,287.22,540.12,287.36Z"/><path class="cls-1" d="M610.56,290.17V257.75c5.61,0,11.14-.27,16.62.08,4,.27,7,3.63,7.73,7.52a9.12,9.12,0,0,1-4.45,9.37,41.25,41.25,0,0,1-4.6,2l10,13.41c-2.84.38-5,.61-6.65-2.18s-4.43-5.29-6.19-8.2c-2-3.27-4.62-3.66-8.1-2.95v13.35ZM615,273.35c3.88-.21,7.65-.18,11.33-.7,2.78-.39,4.88-3.53,4.66-6.08a6.13,6.13,0,0,0-5.23-5.33c-3.56-.23-7.14-.06-10.76-.06Z"/><path class="cls-1" d="M365.49,276.44v13.8h-4.25V257.91c5.75,0,11.53-.43,17.21.14,4.25.43,6.93,4.19,7.2,8.2a9.44,9.44,0,0,1-6.23,9.38c-.84.34-1.74.57-3,1l9.88,13.27c-3.24,1.08-4.31.74-6.15-1.67-2.59-3.4-5.33-6.68-7.82-10.14C370.48,275.51,368,277,365.49,276.44Zm.16-3.08c3.93-.22,7.62-.19,11.23-.69a6.06,6.06,0,0,0,4.78-6,6.22,6.22,0,0,0-5.41-5.45c-3.48-.21-7-.05-10.6-.05Z"/><path class="cls-1" d="M888.26,276.52v13.65H884V257.83c5.6,0,11.28-.38,16.89.12,4.25.39,7.15,4.22,7.46,8.3a9.55,9.55,0,0,1-6.25,9.37c-.84.35-1.74.57-3,1L909,289.87c-3.31,1.08-4.26.77-6.15-1.71-2.59-3.39-5.3-6.69-7.82-10.13C893.17,275.54,890.75,277,888.26,276.52Zm.1-3.16c3.94-.22,7.62-.19,11.23-.69a6.1,6.1,0,0,0,4.81-6,6.3,6.3,0,0,0-5.42-5.47c-3.48-.21-7-.05-10.62-.05Z"/><path class="cls-1" d="M147.91,290.23V276.31H130v13.85h-4.43V257.85h4.22v14.23h18.07V257.79h4.36v32.44Z"/><path class="cls-1" d="M719.3,257.71h4.21v14.4h17.82V257.79h4.34v32.37h-4.2V276.35H723.63v13.87H719.3Z"/><path class="cls-1" d="M164.7,261.07v11h15.52v3.35H164.79V286.8h19.64l.18,3.41H160.4V257.82h23.47v3.25Z"/><path class="cls-1" d="M809.83,261.17c-.79,1.15-1.4,2-2.13,3.07-3.5-2.2-7.12-4-11.28-3.56a14.12,14.12,0,0,0-5.91,1.67,5.6,5.6,0,0,0-2.25,4.07c0,1.08,1.48,2.73,2.66,3.16,3.11,1.15,6.43,1.76,9.65,2.62a41.07,41.07,0,0,1,4.77,1.46,7.12,7.12,0,0,1,4.93,6.33c.33,3.77-.91,6.72-4.23,8.7-6,3.58-16.22,2.86-22-1.71.49-1,1-2,1.42-2.77,3,1,5.73,2.17,8.59,2.89a11.27,11.27,0,0,0,9.17-1.55,7.65,7.65,0,0,0,2.9-4.54c.36-2.09-1.42-3.53-3.4-4.07-3.06-.83-6.2-1.37-9.3-2.09a23.86,23.86,0,0,1-4.08-1.19c-2.88-1.25-5.11-3-5.33-6.57-.24-3.91,1.34-6.78,4.84-8.27C796.1,255.73,803,256.74,809.83,261.17Z"/><path class="cls-1" d="M754,290.21V257.79h23.45v3.28H758.35v11.08h15.47v3.3H758.3v11.38h19.6v3.38Z"/><path class="cls-1" d="M391.69,287.13l1.56-2.93c3,1,5.75,2.19,8.62,2.89a12.7,12.7,0,0,0,9.45-1.59,4.77,4.77,0,0,0,2.73-4.72,4.29,4.29,0,0,0-3.5-3.84c-3.07-.81-6.21-1.37-9.3-2.09a23.71,23.71,0,0,1-4.09-1.19c-2.9-1.25-5.14-3.09-5.4-6.59-.28-3.81,1.45-6.44,4.69-8.16,6.07-3.22,15.43-2.16,21,2.43-.62.91-1.24,1.85-2,2.91-4.46-2.89-9.1-4.54-14.34-3.15a10.85,10.85,0,0,0-3,1.21c-3.26,2.09-3.16,5.82.38,7.22,3.16,1.24,6.6,1.79,9.91,2.68a44.57,44.57,0,0,1,4.53,1.37,7.48,7.48,0,0,1,5.19,7.26,8.1,8.1,0,0,1-4.87,8.12C405.91,292.29,398.73,291.54,391.69,287.13Z"/><path class="cls-1" d="M349.75,272.15v3.43H334.06v11.3h19.76v3.34H329.88V257.84h23.4V261H333.93c0,3.5-.07,6.74.1,10,0,.43,1.28,1.1,2,1.12,3.69.12,7.38.06,11.07.06Z"/><path class="cls-1" d="M876.71,290.21H852.53V257.82H876V261H856.83v11h15.58v3.52H856.77v11.28h19.78C876.61,288,876.66,289,876.71,290.21Z"/><path class="cls-1" d="M36.93,290.18c-5.37.28-4.13.83-5.76-3.36-1.73-4.45-1.68-4.47-6.49-4.47-3,0-6,.09-9,0a2.65,2.65,0,0,0-3,2.06c-.29.87-.67,1.7-1,2.55-1.41,3.56-1.41,3.56-5.7,3.31l4.85-11.45c2.57-6.07,5.32-12.06,7.62-18.23,1-2.73,2.44-3.47,5.1-2.68C27.93,268.52,32.38,279.22,36.93,290.18Zm-9.07-11.41-6.49-15.14L15,278.77Z"/><path class="cls-1" d="M232,257.78h3.72c0,7,.42,14-.11,20.88-.55,7.13-5.06,12.83-14.72,12.27-7-.41-12-5.15-12.86-12.91a29.51,29.51,0,0,1-.1-3.26c0-5.6,0-11.2,0-16.95h4c0,5.34,0,10.59,0,15.85a32.11,32.11,0,0,0,.58,6c1.06,5.09,4.79,7.84,10,7.59a9,9,0,0,0,9-8.75c.38-5.75.35-11.53.48-17.29C232,260.1,232,259,232,257.78Z"/><path class="cls-1" d="M712.23,285.12c-4.64,5.45-14,7.39-21,4.55-6.53-2.66-11-9.79-10.4-16.53.73-8,5.85-14.24,13.52-15.72a19.85,19.85,0,0,1,16.13,3.8c2.58,1.93-.47,2.64-.4,4.56-4.88-3.85-9.75-5.8-15.4-4.51a12.18,12.18,0,0,0-7,5A13.84,13.84,0,0,0,689,283.56c5.14,5.31,12.08,5,21.18-.94Z"/><path class="cls-1" d="M292.16,257.82c5.3-.28,3.95-.8,5.82,3.5,3,6.9,5.8,13.88,8.69,20.82.25.6.57,1.17,1.08,2.21,1.74-4.2,3.33-8,4.88-11.79s3.16-7.73,4.7-11.61c1.39-3.5,1.36-3.51,5.44-3.1a14.56,14.56,0,0,1-.49,1.84c-4,9.64-8,19.27-12,28.93-.52,1.27-1.1,1.86-2.54,1.79-1.26-.07-2.09-.19-2.67-1.59-4.15-10.05-8.4-20-12.62-30.06A8,8,0,0,1,292.16,257.82Z"/><path class="cls-1" d="M569,276.47v13.71h-4.21V257.83h23.1V261h-18.7v12.15H584v3.31Z"/><path class="cls-1" d="M67.78,257.83v3.3H55.15v29.11H50.89v-29H37.82v-3.38Z"/><path class="cls-1" d="M832.57,290.27h-4.39V261.18H815.09v-3.34h30.15V261H832.57Z"/><path class="cls-1" d="M88.9,257.78h30.15v3.3H106.27v29.14h-4.41v-29h-13Z"/><path class="cls-1" d="M490.58,290.23h-4.05c0-3.28.13-6.6,0-9.9a11.55,11.55,0,0,0-1.23-4.7c-2.83-5.21-5.87-10.31-8.83-15.45-.4-.71-.74-1.45-1.16-2.26,2.81-.75,4.6-.2,5.95,2.47,2.29,4.52,5,8.84,7.62,13.49,2.67-4.68,5.19-9.08,7.7-13.49,1.75-3.08,1.74-3.09,6-2.45-3.31,5.69-6.5,11.35-9.9,16.88a12.31,12.31,0,0,0-2,7.55C490.72,284.94,490.58,287.52,490.58,290.23Z"/><path class="cls-1" d="M440.66,257.78h30v3.32H458v29.07h-4.26V261.26h-13Z"/><path class="cls-1" d="M428.69,257.77h3.72v32.48h-3.72Z"/><path class="cls-1" d="M285.83,290.24h-3.74V257.86h3.74Z"/></g></g></svg>