<svg xmlns="http://www.w3.org/2000/svg" viewBox="0 0 425.17 89.19"><defs><style>.cls-1{fill:#fff;}</style></defs><g id="Layer_2" data-name="Layer 2"><g id="Layer_1-2" data-name="Layer 1"><g id="EUujMg.tif"><path class="cls-1" d="M0,51.18c2.44-1.44,4.65-4.43,7.83-1.45,1.81,1.69,2.17,3.78.54,5.8-2.89,3.58-5.62.87-8.37-.35Z"/><path class="cls-1" d="M83.75,53c-.23-1.69,1.21-2.31,2.16-3.06a11.34,11.34,0,0,0,4.43-8.5c.44-5.33,3.48-8.37,8.71-9.48,8.93-1.88,13.32-8,12.1-16.93-.17-1.32-.53-2.61-.7-3.93-.59-4.73,2.27-9.37,6.47-10.58,5.35-1.55,10.48.69,12.52,5.48,2,4.57.43,11.24-4.14,12.43C112,21.88,106.57,29.25,110.71,42.88c.75,2.45-1.24,4.68-2.44,6.88-4.22,7.7-2,15.7,5.58,20.12a18.44,18.44,0,0,1,3.86,3.1c6.94,7,15.4,7,22.23-.23,3.95-4.15,9.58-4.79,13.92-1.57a10.06,10.06,0,0,1,2.64,13c-3.16,5.62-11.3,6.65-16.44,2.09-8.54-7.61-14.94-7.63-22.94-.09-3.86,3.63-9.88,4.07-13.67,1a10.15,10.15,0,0,1-2.25-13.47c3.32-5,4.23-10.07,1.6-15.52C99.81,52,95.43,50.3,88.42,52,86.92,52.37,85.51,53.7,83.75,53Z"/><path class="cls-1" d="M301.6,79.12c-12.81.07-20.46-7.19-20-18.89a13.89,13.89,0,0,1,5.67-11.15c1.83-1.35,1.77-1.91.28-3.64-8-9.26-3.75-21.5,8.23-24.06a25.6,25.6,0,0,1,14.27.82,14.22,14.22,0,0,1,6.08,22.86c-.84,1-3.44,1.64-.8,3.64,6.85,5.23,7.64,12.21,4.83,19.68S311,78.47,303.6,79.11C302.94,79.17,302.27,79.12,301.6,79.12Zm.23-5.31c.86-.11,1.85-.22,2.84-.37,7.06-1.12,11-5.43,11-11.92,0-6.11-3.56-9.58-10.83-10.73a21.68,21.68,0,0,0-9.38.58c-7.88,2.23-10.73,10.89-5.75,17.45C292.72,72.79,297.12,73.52,301.83,73.81Zm.48-29c.54-.07,1.86-.16,3.16-.42,5.12-1,8.09-4.19,8.18-8.59.09-4.73-2.87-8.06-8.18-9.08a17.27,17.27,0,0,0-11.64,1.38c-4.94,2.61-6,9.84-2,13.51C294.55,44.13,297.94,44.82,302.31,44.83Z"/><path class="cls-1" d="M83.36,53A42.14,42.14,0,0,0,78,66.62c-.9,4.38-4.73,6.38-9,6.7s-7.74-1.79-9.73-5.7C53.41,56,50,54.48,37.24,58.07c-5.5,1.55-10.92-1-12.68-6a9.88,9.88,0,0,1,5.77-12.67c5.07-2.06,10.37.15,12.84,5.36,5,10.55,10.75,13,21.56,9.09a9.07,9.07,0,0,1,3.87-.69C73.46,53.74,78.29,55.25,83.36,53Z"/><path class="cls-1" d="M390.62,50.12c0-6,.05-12,0-18,0-2.67.83-3.94,3.76-3.78,5.31.28,10.65-.3,15.94.73,7,1.37,11.75,5.35,13.68,12.26a32.68,32.68,0,0,1,.09,17.25c-2,7.78-7.46,12.16-15.21,13.19-5.09.67-10.31.24-15.47.4-2.74.08-2.81-1.68-2.81-3.62q0-9.24,0-18.47Zm11.32-19a15.77,15.77,0,0,1-2.48,0c-4.59-.78-6,1.11-5.72,5.66.38,7.1.1,14.24.1,21.37,0,12.1,0,12,12.39,11.27,6.32-.39,11.21-2.92,14-8.74C427.72,44.89,419.19,31.15,401.94,31.14Z"/><path class="cls-1" d="M181,50.44c0-6,.11-11.95,0-17.93-.07-2.84.57-4.45,3.82-4.1,6.53.69,13.11-1,19.66,1.34C213,32.79,215.61,42.83,209,49c-1.89,1.77-4.14,2.8.16,4.52,2.69,1.08,3,4.24,3.28,6.87.31,3,.31,6,.4,9,0,1,.68,2.6-1.15,2.65-1.43.05-1.8-1.25-1.89-2.48-.17-2.47-.35-5-.44-7.44-.24-6.21-2.45-8.62-8.63-9.32-16.48-1.86-16.48-1.86-16.64,14.64,0,.66,0,1.33,0,2-.08,1.12.13,2.62-1.52,2.6S181,70.51,181,69.36C181,63.05,181,56.75,181,50.44Zm13.07-.66a82.56,82.56,0,0,0,8.91-.49c4.06-.63,6.35-3.27,6.83-7.36.51-4.32-.57-7.75-5-9.65-3.86-1.66-7.83-1.07-11.76-1.11-9-.1-9,0-9,8.68C184.09,49.66,184.09,49.66,194.08,49.78Z"/><path class="cls-1" d="M219.16,50.38c0-6.15.08-12.31,0-18.46-.05-2.53.74-3.58,3.41-3.54,7.66.13,15.33,0,23,.06,1.1,0,2.77-.38,2.89,1.15.18,2.14-1.78,1.5-2.93,1.51-6.5.07-13,.14-19.49,0-2.79-.06-3.67.87-3.77,3.7-.49,13.46-.57,13.46,13,13.46a50.44,50.44,0,0,1,5.5,0c2,.23,5.62-1,5.63,1.14,0,2.65-3.48,1.22-5.39,1.31-4.82.21-9.66.21-14.49,0-3.23-.12-4.5,1-4.27,4.31a85.06,85.06,0,0,1,0,10.47c-.17,3.06,1,4.1,4,4,6.49-.15,13-.06,19.49,0,1.09,0,2.78-.37,2.88,1.16.14,2.14-1.85,1.44-3,1.45-7.66.07-15.33-.07-23,.09-3,.06-3.62-1.28-3.56-3.9C219.24,62.36,219.16,56.37,219.16,50.38Z"/><path class="cls-1" d="M356.94,50.4c0-6.15.07-12.31,0-18.46,0-2.5.74-3.6,3.41-3.55,7.66.12,15.32,0,23,.05,1.12,0,2.78-.26,2.82,1.27.07,2.12-1.89,1.38-3,1.39-6.49.07-13,.15-19.48,0-2.76-.07-3.68.72-3.76,3.61-.41,13.55-.5,13.55,12.79,13.55,2.66,0,5.33-.09,8,0,1.36.07,3.69-.79,3.77,1.16.09,2.12-2.27,1.29-3.58,1.32-5.66.1-11.33.18-17,0-3.05-.11-4.16.9-4,4a87.29,87.29,0,0,1,0,11c-.21,3.17,1.12,4,4.05,3.88,6.66-.17,13.32-.07,20,0,1.07,0,2.64-.25,2.48,1.52-.11,1.31-1.46,1.11-2.41,1.11-8,0-16,0-24,0-2.49,0-3.1-1.16-3.08-3.37C357,62.71,356.94,56.55,356.94,50.4Z"/><path class="cls-1" d="M336.1,51.48c0-5.47-.15-10.95,0-16.42.11-3-.73-4.23-3.88-4-3,.25-6,.07-9,0-1,0-2.18,0-2.13-1.4,0-1,1-1.25,1.85-1.25q14.7,0,29.4,0c.92,0,1.79.27,1.83,1.24.06,1.36-1.06,1.44-2.09,1.44-3,0-6,.18-9,0s-4,.95-4,4c.15,10.29.06,20.57.06,30.86,0,1.16,0,2.32,0,3.48s0,2.56-1.62,2.56-1.5-1.46-1.5-2.56C336.09,63.42,336.1,57.45,336.1,51.48Z"/><path class="cls-1" d="M136.94,50.47a8.73,8.73,0,0,1-8.87,8.7,8.67,8.67,0,1,1,8.87-8.7Z"/><path class="cls-1" d="M98.77,9.07c0,4.37-4.1,8.52-8.66,8.65A9.09,9.09,0,0,1,81,9,8.59,8.59,0,0,1,89.85.24,9,9,0,0,1,98.77,9.07Z"/><path class="cls-1" d="M71.4,32.8a8.75,8.75,0,0,1-17.5-.32A8.55,8.55,0,0,1,62.53,24,8.68,8.68,0,0,1,71.4,32.8Z"/><path class="cls-1" d="M36.19,73a8.83,8.83,0,0,1-8.91,8.85A9.09,9.09,0,0,1,18.82,73a8.78,8.78,0,0,1,8.48-8.74A8.58,8.58,0,0,1,36.19,73Z"/><path class="cls-1" d="M253,50.19c0-6.15,0-12.31,0-18.46,0-1.23-.41-3.11,1.53-3.05s1.35,2,1.35,3.17c0,10.48.28,21-.08,31.42-.17,4.83.82,6.92,6.15,6.37,5.11-.52,10.31-.13,15.47-.09,1.1,0,2.81-.37,2.88,1.15.09,2-1.84,1.46-3,1.47-7,.06-14-.06-21,.07-2.74.05-3.4-1.15-3.35-3.6C253.07,62.49,253,56.34,253,50.19Z"/><path class="cls-1" d="M55.7,15.64c-2.63-.51-4.52-1.73-4.63-4.5-.11-3,1.69-4.75,4.56-4.7A4.16,4.16,0,0,1,59.91,11C59.91,13.7,58,15,55.7,15.64Z"/><path class="cls-1" d="M138.16,29.25c-2.63-.45-4.31-1.91-4.13-4.61a4.34,4.34,0,1,1,8.66.43C142.57,27.78,140.77,29.05,138.16,29.25Z"/><path class="cls-1" d="M83.59,85.49c-2.76-.49-4.4-2.1-4.34-4.68a4.32,4.32,0,1,1,8.63.3C87.78,83.83,86,85.11,83.59,85.49Z"/><path class="cls-1" d="M158.13,52.78c-.2,2.71-1.41,4.42-4.25,4.47A4.07,4.07,0,0,1,149.42,53a4.15,4.15,0,0,1,4.29-4.46C156.43,48.47,157.83,50.2,158.13,52.78Z"/></g></g></g></svg>