<svg xmlns="http://www.w3.org/2000/svg" viewBox="0 0 944.58 138.66"><defs><style>.cls-1{fill:#fff;}</style></defs><g id="Layer_2" data-name="Layer 2"><g id="Layer_1-2" data-name="Layer 1"><path class="cls-1" d="M770.71,76.59C772.42,57.46,784,46.77,801.3,41.38c17.13-5.34,34.18-3.92,50.92,2.12,1.85.67,3.56,1.7,5.9,2.83-5.24,8.93-10.33,17.56-15,25.53-6.29-2.32-12.06-4.78-18-6.47-2.33-.66-5.29,0-7.72.87a4.8,4.8,0,0,0-2.41,3.8c0,1.25,1.49,2.72,2.68,3.61,1,.73,2.5.82,3.79,1.08,3.43.69,6.9,1.19,10.28,2,17.79,4.33,23.95,15.59,17.91,32.81-3.53,10.08-10.62,17.07-20,21.81-16.38,8.26-33.57,9-51,4.47-7.36-1.9-14.45-4.79-22.55-7.52l16.75-29c5,2.67,9.43,5.61,14.3,7.5a38.49,38.49,0,0,0,12.54,2.4c3.29.1,6.23-2,6.25-5.79s-3.28-4.1-6-4.67c-3.57-.75-7.23-1.17-10.75-2.1-8.06-2.14-14.69-6.14-17.78-15.88-.81,5.91-1.45,10.52-2.14,15.53h-68a53.8,53.8,0,0,0-.69,5.66c0,4.33.66,8.51,5.51,10.06s9.24.34,12-3.79c2.07-3.16,4.44-3.71,7.82-3.68,13,.16,26,.07,39.89.07-1,2.07-1.53,3.67-2.38,5.11-5.55,9.46-13.65,16.17-23.45,20.88-18.16,8.73-37,10.49-56.31,4.55-21.46-6.62-31.62-23.76-27.69-45.76,5.73-32.12,35.3-54.09,68.75-51a77.89,77.89,0,0,1,9.38,1.35C754,44.15,767.07,55.67,770.71,76.59Zm-45.07-.48c1-6.92-2.48-11.77-8.45-12.16-6.44-.41-11.93,5-12.2,12.16Z"/><path class="cls-1" d="M106.23,61H131c-2.56,15.33-3.39,30.44-10.81,44.05-11.89,21.78-31.47,31-55.17,33a118.12,118.12,0,0,1-24.86-.74c-28.58-3.83-43.29-22.64-39.53-51C3.7,62.71,7.77,39.23,11.43,15.69c.79-5,1.63-10.08,2.48-15.3h49.7c-1.38,8.94-2.69,17.68-4.06,26.41Q55.43,53,51.25,79.24c-.15,1-.26,2-.34,3-.62,8.11,1.24,11.88,6.5,13.28,8,2.14,16.13-.72,18.35-7.79,2.46-7.83,3.69-16.08,5-24.21,3.45-20.88,6.66-41.8,10-63h25C112.62,20.53,109.49,40.37,106.23,61Z"/><path class="cls-1" d="M493.37,136.09H445.42c2.1-13.39,4.12-26.43,6.2-39.47,4.88-30.7,9.87-61.39,14.57-92.12.57-3.74,2-4.45,5.43-4.42,20,.14,39.94-.43,59.88.31a77.17,77.17,0,0,1,25.63,5.19C573.88,12.35,581,28.45,578,48.91c-4.27,29.06-24.49,46.46-54,46.5-6.49,0-13,.18-19.46-.08-3.48-.13-4.89.75-5.4,4.46C497.48,111.89,495.34,123.92,493.37,136.09Zm12.1-75.41c6.43.45,12.53.71,18.21-2.3,4.82-2.55,7.79-8.83,6.57-13.89-1.3-5.41-5.78-6.3-10.4-6.76a30.61,30.61,0,0,0-7.45-.27c-1.34.2-3.33,1.61-3.57,2.78C507.49,46.86,506.59,53.57,505.47,60.68Z"/><path class="cls-1" d="M441.15,136.13H395.31c1-4.1,1.89-7.86,3.08-12.79-3.07,2.47-5.21,4.21-7.39,5.92-6.12,4.79-12.84,8.28-20.73,9-20.49,1.93-35.32-10.86-37.56-33-2.13-21,4.68-39.22,19.68-54.08,10.23-10.14,22.7-14.68,37.32-12.47,8.37,1.26,14.63,5.71,20.06,13.8.32-4.88.55-8.26.79-11.87h45.75C451.24,72.6,446.22,104.19,441.15,136.13ZM379.38,91c0,7,3.51,10.8,10,10.87,8.34.1,15.05-7.16,15.13-16.34.05-6.35-4.12-10.64-10.44-10.72C386.06,74.7,379.39,82.06,379.38,91Z"/><path class="cls-1" d="M842.55,128.57l17-29.36c4,2.27,7.52,4.84,11.46,6.37a61.72,61.72,0,0,0,14.29,3.76c3.45.44,6.81-1.41,7.2-5.39.44-4.43-3.39-4.57-6.43-5.27-4.69-1.06-9.56-1.65-14-3.28-11.34-4.13-15.86-12.53-13.64-24.32A34.05,34.05,0,0,1,869,51.85c17.19-15.86,55.49-18.64,75.6-5.14L929.72,72c-6-2.32-11.51-4.54-17.07-6.49-1.51-.53-3.56-.88-4.88-.27-2.33,1.06-5.59,2.56-6.12,4.51-1,3.62,2.78,4.2,5.5,4.87,5.8,1.42,11.8,2.24,17.4,4.22,10.15,3.6,14.32,10.47,13.61,21.1-.87,13.08-7.41,22.82-18.48,29.51-15.6,9.43-32.62,11.09-50.1,7.36C860.71,134.89,852.16,131.54,842.55,128.57Z"/><path class="cls-1" d="M226.63,136.15H179.68c3.1-19.77,6.15-39.24,9.28-59.23l-11.46.67c2-12.29,3.91-24.22,5.91-36.58l11.13.51c.72-4.17,1.29-8.22,2.18-12.2.28-1.25,1.18-3,2.2-3.36,15.66-5.49,31.39-10.78,48-16.44-1.65,11-3.19,21.18-4.78,31.75h15.56c-2,12.25-4,24.12-6,36.41-3.64-.23-7-.2-10.21-.7-3.91-.61-5.46.48-6.05,4.66-2.41,17-5.25,34-8,51C227.34,133.76,227,134.85,226.63,136.15Z"/><path class="cls-1" d="M332.47,84.8c-4-1.48-7.59-3.56-11.4-4.08-12.17-1.66-21.16,5.22-23.44,17.71-1.89,10.41-3.36,20.9-5,31.35-.33,2.09-.75,4.16-1.16,6.39H244.65c5.07-31.86,10.08-63.44,15.15-95.35h46.8L304,52.94c16.84-13.59,22.53-15.88,35.72-14.28-1.18,7.75-2.33,15.51-3.54,23.25S333.69,77.2,332.47,84.8Z"/><path class="cls-1" d="M628.62,41c-.89,4.12-1.68,7.73-2.46,11.35,9.49-10.61,21-15.08,35.69-13.86-2.44,15.63-4.85,31-7.24,46.35-4.23-1.53-7.81-3.6-11.6-4.08-12.69-1.61-21.45,5.75-23.65,19.32-1.75,10.78-3.4,21.57-5.11,32.35-.17,1.13-.45,2.24-.74,3.66H566.79c1.93-12.32,3.79-24.38,5.71-36.43,2.9-18.3,5.87-36.59,8.74-54.89.38-2.46.6-4.38,4-4.35,13.64.16,27.29.07,40.93.1A16,16,0,0,1,628.62,41Z"/><path class="cls-1" d="M165.92,136.21H119l40.43-98.85H134.66c2.05-12.84,4-24.86,5.9-37H186C179.3,45.75,172.64,90.8,165.92,136.21Z"/></g></g></svg>